<svg width="16" height="16" viewBox="0 0 16 16" fill="none" xmlns="http://www.w3.org/2000/svg">
<g clip-path="url(#clip0_105_41)">
<path d="M14.5 0H1.5C0.675 0 0 0.675 0 1.5V14.5C0 15.325 0.675 16 1.5 16H14.5C15.325 16 16 15.325 16 14.5V1.5C16 0.675 15.325 0 14.5 0ZM2.75 11H2.25L2 9.5L2.25 8H2.75L3 9.5L2.75 11ZM4.75 11H4.25L4 9L4.25 7H4.75L5 9L4.75 11ZM6.75 11H6.25L6 8L6.25 5H6.75L7 8L6.75 11ZM12.894 11L8.185 10.997C8.13544 10.9913 8.0896 10.9679 8.05582 10.9312C8.02204 10.8945 8.00259 10.8469 8.001 10.797V5.403C8.001 5.303 8.035 5.253 8.163 5.203C8.59671 5.03444 9.06369 4.96908 9.52702 5.01208C9.99035 5.05509 10.4373 5.20529 10.8326 5.4508C11.2279 5.69631 11.5606 6.0304 11.8045 6.42667C12.0485 6.82293 12.1969 7.2705 12.238 7.734C12.4964 7.62617 12.7775 7.58381 13.0562 7.61068C13.335 7.63756 13.6028 7.73283 13.8359 7.88805C14.0689 8.04327 14.2601 8.25364 14.3923 8.50047C14.5246 8.7473 14.5939 9.02297 14.594 9.303C14.594 10.241 13.832 11 12.894 11Z" fill="white"/>
</g>
<defs>
<clipPath id="clip0_105_41">
<rect width="16" height="16" fill="white"/>
</clipPath>
</defs>
</svg>
